<?xml version="1.0" encoding="us-ascii" standalone="no"?><svg xmlns="http://www.w3.org/2000/svg" xmlns:xlink="http://www.w3.org/1999/xlink" contentStyleType="text/css" height="628px" preserveAspectRatio="none" style="width:944px;height:628px;background:#FFFFFF;" version="1.1" viewBox="0 0 944 628" width="944px" zoomAndPan="magnify"><defs/><g><!--class Game--><g id="elem_Game"><rect codeLine="1" fill="#F1F1F1" height="196.9688" id="Game" rx="2.5" ry="2.5" style="stroke:#181818;stroke-width:0.5;" width="166" x="72" y="152"/><ellipse cx="131.75" cy="168" fill="#ADD1B2" rx="11" ry="11" style="stroke:#181818;stroke-width:1.0;"/><path d="M134.5156,163.875 Q134.6719,163.6563 134.8594,163.5469 Q135.0469,163.4375 135.2656,163.4375 Q135.6406,163.4375 135.875,163.7031 Q136.1094,163.9531 136.1094,164.5625 L136.1094,166.0156 Q136.1094,166.625 135.875,166.8906 Q135.6406,167.1563 135.2656,167.1563 Q134.9219,167.1563 134.7188,166.9531 Q134.5156,166.7656 134.4063,166.25 Q134.3594,165.8906 134.1719,165.7031 Q133.8438,165.3281 133.2344,165.1094 Q132.625,164.8906 132,164.8906 Q131.2344,164.8906 130.5938,165.2188 Q129.9688,165.5469 129.4688,166.2969 Q128.9844,167.0469 128.9844,168.0781 L128.9844,169.1719 Q128.9844,170.4063 129.875,171.2344 Q130.7656,172.0469 132.3594,172.0469 Q133.2969,172.0469 133.9531,171.7969 Q134.3438,171.6406 134.7656,171.2031 Q135.0313,170.9375 135.1719,170.8594 Q135.3281,170.7813 135.5313,170.7813 Q135.8594,170.7813 136.1094,171.0469 Q136.375,171.2969 136.375,171.6406 Q136.375,171.9844 136.0313,172.3906 Q135.5313,172.9688 134.7344,173.2969 Q133.6563,173.75 132.3594,173.75 Q130.8438,173.75 129.6406,173.125 Q128.6563,172.625 127.9688,171.5625 Q127.2813,170.4844 127.2813,169.2031 L127.2813,168.0469 Q127.2813,166.7188 127.8906,165.5781 Q128.5156,164.4219 129.6094,163.8125 Q130.7031,163.1875 131.9375,163.1875 Q132.6719,163.1875 133.3125,163.3594 Q133.9688,163.5156 134.5156,163.875 Z " fill="#000000"/><text fill="#000000" font-family="sans-serif" font-size="14" lengthAdjust="spacing" textLength="38" x="152.25" y="173.7969">Game</text><line style="stroke:#181818;stroke-width:0.5;" x1="73" x2="237" y1="184" y2="184"/><line style="stroke:#181818;stroke-width:0.5;" x1="73" x2="237" y1="192" y2="192"/><ellipse cx="83" cy="206.8105" fill="#84BE84" rx="3" ry="3" style="stroke:#038048;stroke-width:1.0;"/><text fill="#000000" font-family="sans-serif" font-size="14" lengthAdjust="spacing" textLength="71" x="92" y="211.1074">GetDepot()</text><ellipse cx="83" cy="225.4316" fill="#84BE84" rx="3" ry="3" style="stroke:#038048;stroke-width:1.0;"/><text fill="#000000" font-family="sans-serif" font-size="14" lengthAdjust="spacing" textLength="76" x="92" y="229.7285">LancerJeu()</text><ellipse cx="83" cy="244.0527" fill="#84BE84" rx="3" ry="3" style="stroke:#038048;stroke-width:1.0;"/><text fill="#000000" font-family="sans-serif" font-size="14" lengthAdjust="spacing" textLength="109" x="92" y="248.3496">JoueurCourrant()</text><ellipse cx="83" cy="262.6738" fill="#84BE84" rx="3" ry="3" style="stroke:#038048;stroke-width:1.0;"/><text fill="#000000" font-family="sans-serif" font-size="14" lengthAdjust="spacing" textLength="100" x="92" y="266.9707">JoueurSuivant()</text><ellipse cx="83" cy="281.2949" fill="#84BE84" rx="3" ry="3" style="stroke:#038048;stroke-width:1.0;"/><text fill="#000000" font-family="sans-serif" font-size="14" lengthAdjust="spacing" textLength="93" x="92" y="285.5918">PiocherCarte()</text><ellipse cx="83" cy="299.916" fill="#84BE84" rx="3" ry="3" style="stroke:#038048;stroke-width:1.0;"/><text fill="#000000" font-family="sans-serif" font-size="14" lengthAdjust="spacing" textLength="81" x="92" y="304.2129">PiocheVide()</text><ellipse cx="83" cy="318.5371" fill="#84BE84" rx="3" ry="3" style="stroke:#038048;stroke-width:1.0;"/><text fill="#000000" font-family="sans-serif" font-size="14" lengthAdjust="spacing" textLength="107" x="92" y="322.834">ReutiliserDepot()</text><ellipse cx="83" cy="337.1582" fill="#84BE84" rx="3" ry="3" style="stroke:#038048;stroke-width:1.0;"/><text fill="#000000" font-family="sans-serif" font-size="14" lengthAdjust="spacing" textLength="140" x="92" y="341.4551">NotifierObservateurs()</text></g><!--class SujetPeche--><g id="elem_SujetPeche"><rect codeLine="12" fill="#F1F1F1" height="85.2422" id="SujetPeche" rx="2.5" ry="2.5" style="stroke:#181818;stroke-width:0.5;" width="322" x="7" y="418.5"/><ellipse cx="127.75" cy="434.5" fill="#ADD1B2" rx="11" ry="11" style="stroke:#181818;stroke-width:1.0;"/><path d="M130.5156,430.375 Q130.6719,430.1563 130.8594,430.0469 Q131.0469,429.9375 131.2656,429.9375 Q131.6406,429.9375 131.875,430.2031 Q132.1094,430.4531 132.1094,431.0625 L132.1094,432.5156 Q132.1094,433.125 131.875,433.3906 Q131.6406,433.6563 131.2656,433.6563 Q130.9219,433.6563 130.7188,433.4531 Q130.5156,433.2656 130.4063,432.75 Q130.3594,432.3906 130.1719,432.2031 Q129.8438,431.8281 129.2344,431.6094 Q128.625,431.3906 128,431.3906 Q127.2344,431.3906 126.5938,431.7188 Q125.9688,432.0469 125.4688,432.7969 Q124.9844,433.5469 124.9844,434.5781 L124.9844,435.6719 Q124.9844,436.9063 125.875,437.7344 Q126.7656,438.5469 128.3594,438.5469 Q129.2969,438.5469 129.9531,438.2969 Q130.3438,438.1406 130.7656,437.7031 Q131.0313,437.4375 131.1719,437.3594 Q131.3281,437.2813 131.5313,437.2813 Q131.8594,437.2813 132.1094,437.5469 Q132.375,437.7969 132.375,438.1406 Q132.375,438.4844 132.0313,438.8906 Q131.5313,439.4688 130.7344,439.7969 Q129.6563,440.25 128.3594,440.25 Q126.8438,440.25 125.6406,439.625 Q124.6563,439.125 123.9688,438.0625 Q123.2813,436.9844 123.2813,435.7031 L123.2813,434.5469 Q123.2813,433.2188 123.8906,432.0781 Q124.5156,430.9219 125.6094,430.3125 Q126.7031,429.6875 127.9375,429.6875 Q128.6719,429.6875 129.3125,429.8594 Q129.9688,430.0156 130.5156,430.375 Z " fill="#000000"/><text fill="#000000" font-family="sans-serif" font-size="14" lengthAdjust="spacing" textLength="72" x="148.25" y="440.2969">SujetPeche</text><line style="stroke:#181818;stroke-width:0.5;" x1="8" x2="328" y1="450.5" y2="450.5"/><line style="stroke:#181818;stroke-width:0.5;" x1="8" x2="328" y1="458.5" y2="458.5"/><ellipse cx="18" cy="473.3105" fill="#84BE84" rx="3" ry="3" style="stroke:#038048;stroke-width:1.0;"/><text fill="#000000" font-family="sans-serif" font-size="14" lengthAdjust="spacing" textLength="296" x="27" y="477.6074">AjouterObservateur(IObservateur observateur)</text><ellipse cx="18" cy="491.9316" fill="#84BE84" rx="3" ry="3" style="stroke:#038048;stroke-width:1.0;"/><text fill="#000000" font-family="sans-serif" font-size="14" lengthAdjust="spacing" textLength="140" x="27" y="496.2285">NotifierObservateurs()</text></g><!--class Program--><g id="elem_Program"><rect codeLine="17" fill="#F1F1F1" height="48" id="Program" rx="2.5" ry="2.5" style="stroke:#181818;stroke-width:0.5;" width="86" x="851" y="25.5"/><ellipse cx="866" cy="41.5" fill="#ADD1B2" rx="11" ry="11" style="stroke:#181818;stroke-width:1.0;"/><path d="M868.7656,37.375 Q868.9219,37.1563 869.1094,37.0469 Q869.2969,36.9375 869.5156,36.9375 Q869.8906,36.9375 870.125,37.2031 Q870.3594,37.4531 870.3594,38.0625 L870.3594,39.5156 Q870.3594,40.125 870.125,40.3906 Q869.8906,40.6563 869.5156,40.6563 Q869.1719,40.6563 868.9688,40.4531 Q868.7656,40.2656 868.6563,39.75 Q868.6094,39.3906 868.4219,39.2031 Q868.0938,38.8281 867.4844,38.6094 Q866.875,38.3906 866.25,38.3906 Q865.4844,38.3906 864.8438,38.7188 Q864.2188,39.0469 863.7188,39.7969 Q863.2344,40.5469 863.2344,41.5781 L863.2344,42.6719 Q863.2344,43.9063 864.125,44.7344 Q865.0156,45.5469 866.6094,45.5469 Q867.5469,45.5469 868.2031,45.2969 Q868.5938,45.1406 869.0156,44.7031 Q869.2813,44.4375 869.4219,44.3594 Q869.5781,44.2813 869.7813,44.2813 Q870.1094,44.2813 870.3594,44.5469 Q870.625,44.7969 870.625,45.1406 Q870.625,45.4844 870.2813,45.8906 Q869.7813,46.4688 868.9844,46.7969 Q867.9063,47.25 866.6094,47.25 Q865.0938,47.25 863.8906,46.625 Q862.9063,46.125 862.2188,45.0625 Q861.5313,43.9844 861.5313,42.7031 L861.5313,41.5469 Q861.5313,40.2188 862.1406,39.0781 Q862.7656,37.9219 863.8594,37.3125 Q864.9531,36.6875 866.1875,36.6875 Q866.9219,36.6875 867.5625,36.8594 Q868.2188,37.0156 868.7656,37.375 Z " fill="#000000"/><text fill="#000000" font-family="sans-serif" font-size="14" lengthAdjust="spacing" textLength="54" x="880" y="47.2969">Program</text><line style="stroke:#181818;stroke-width:0.5;" x1="852" x2="936" y1="57.5" y2="57.5"/><line style="stroke:#181818;stroke-width:0.5;" x1="852" x2="936" y1="65.5" y2="65.5"/></g><!--class Carte--><g id="elem_Carte"><rect codeLine="20" fill="#F1F1F1" height="103.8633" id="Carte" rx="2.5" ry="2.5" style="stroke:#181818;stroke-width:0.5;" width="122" x="515" y="409"/><ellipse cx="554.75" cy="425" fill="#ADD1B2" rx="11" ry="11" style="stroke:#181818;stroke-width:1.0;"/><path d="M557.5156,420.875 Q557.6719,420.6563 557.8594,420.5469 Q558.0469,420.4375 558.2656,420.4375 Q558.6406,420.4375 558.875,420.7031 Q559.1094,420.9531 559.1094,421.5625 L559.1094,423.0156 Q559.1094,423.625 558.875,423.8906 Q558.6406,424.1563 558.2656,424.1563 Q557.9219,424.1563 557.7188,423.9531 Q557.5156,423.7656 557.4063,423.25 Q557.3594,422.8906 557.1719,422.7031 Q556.8438,422.3281 556.2344,422.1094 Q555.625,421.8906 555,421.8906 Q554.2344,421.8906 553.5938,422.2188 Q552.9688,422.5469 552.4688,423.2969 Q551.9844,424.0469 551.9844,425.0781 L551.9844,426.1719 Q551.9844,427.4063 552.875,428.2344 Q553.7656,429.0469 555.3594,429.0469 Q556.2969,429.0469 556.9531,428.7969 Q557.3438,428.6406 557.7656,428.2031 Q558.0313,427.9375 558.1719,427.8594 Q558.3281,427.7813 558.5313,427.7813 Q558.8594,427.7813 559.1094,428.0469 Q559.375,428.2969 559.375,428.6406 Q559.375,428.9844 559.0313,429.3906 Q558.5313,429.9688 557.7344,430.2969 Q556.6563,430.75 555.3594,430.75 Q553.8438,430.75 552.6406,430.125 Q551.6563,429.625 550.9688,428.5625 Q550.2813,427.4844 550.2813,426.2031 L550.2813,425.0469 Q550.2813,423.7188 550.8906,422.5781 Q551.5156,421.4219 552.6094,420.8125 Q553.7031,420.1875 554.9375,420.1875 Q555.6719,420.1875 556.3125,420.3594 Q556.9688,420.5156 557.5156,420.875 Z " fill="#000000"/><text fill="#000000" font-family="sans-serif" font-size="14" lengthAdjust="spacing" textLength="35" x="574.25" y="430.7969">Carte</text><line style="stroke:#181818;stroke-width:0.5;" x1="516" x2="636" y1="441" y2="441"/><line style="stroke:#181818;stroke-width:0.5;" x1="516" x2="636" y1="449" y2="449"/><ellipse cx="526" cy="463.8105" fill="#84BE84" rx="3" ry="3" style="stroke:#038048;stroke-width:1.0;"/><text fill="#000000" font-family="sans-serif" font-size="14" lengthAdjust="spacing" textLength="74" x="535" y="468.1074">GetValeur()</text><ellipse cx="526" cy="482.4316" fill="#84BE84" rx="3" ry="3" style="stroke:#038048;stroke-width:1.0;"/><text fill="#000000" font-family="sans-serif" font-size="14" lengthAdjust="spacing" textLength="83" x="535" y="486.7285">GetCouleur()</text><ellipse cx="526" cy="501.0527" fill="#84BE84" rx="3" ry="3" style="stroke:#038048;stroke-width:1.0;"/><text fill="#000000" font-family="sans-serif" font-size="14" lengthAdjust="spacing" textLength="96" x="535" y="505.3496">GetNomCarte()</text></g><!--class JeuDeCartes--><g id="elem_JeuDeCartes"><rect codeLine="26" fill="#F1F1F1" height="85.2422" id="JeuDeCartes" rx="2.5" ry="2.5" style="stroke:#181818;stroke-width:0.5;" width="319" x="496.5" y="7"/><ellipse cx="610.75" cy="23" fill="#ADD1B2" rx="11" ry="11" style="stroke:#181818;stroke-width:1.0;"/><path d="M613.5156,18.875 Q613.6719,18.6563 613.8594,18.5469 Q614.0469,18.4375 614.2656,18.4375 Q614.6406,18.4375 614.875,18.7031 Q615.1094,18.9531 615.1094,19.5625 L615.1094,21.0156 Q615.1094,21.625 614.875,21.8906 Q614.6406,22.1563 614.2656,22.1563 Q613.9219,22.1563 613.7188,21.9531 Q613.5156,21.7656 613.4063,21.25 Q613.3594,20.8906 613.1719,20.7031 Q612.8438,20.3281 612.2344,20.1094 Q611.625,19.8906 611,19.8906 Q610.2344,19.8906 609.5938,20.2188 Q608.9688,20.5469 608.4688,21.2969 Q607.9844,22.0469 607.9844,23.0781 L607.9844,24.1719 Q607.9844,25.4063 608.875,26.2344 Q609.7656,27.0469 611.3594,27.0469 Q612.2969,27.0469 612.9531,26.7969 Q613.3438,26.6406 613.7656,26.2031 Q614.0313,25.9375 614.1719,25.8594 Q614.3281,25.7813 614.5313,25.7813 Q614.8594,25.7813 615.1094,26.0469 Q615.375,26.2969 615.375,26.6406 Q615.375,26.9844 615.0313,27.3906 Q614.5313,27.9688 613.7344,28.2969 Q612.6563,28.75 611.3594,28.75 Q609.8438,28.75 608.6406,28.125 Q607.6563,27.625 606.9688,26.5625 Q606.2813,25.4844 606.2813,24.2031 L606.2813,23.0469 Q606.2813,21.7188 606.8906,20.5781 Q607.5156,19.4219 608.6094,18.8125 Q609.7031,18.1875 610.9375,18.1875 Q611.6719,18.1875 612.3125,18.3594 Q612.9688,18.5156 613.5156,18.875 Z " fill="#000000"/><text fill="#000000" font-family="sans-serif" font-size="14" lengthAdjust="spacing" textLength="82" x="631.25" y="28.7969">JeuDeCartes</text><line style="stroke:#181818;stroke-width:0.5;" x1="497.5" x2="814.5" y1="39" y2="39"/><line style="stroke:#181818;stroke-width:0.5;" x1="497.5" x2="814.5" y1="47" y2="47"/><ellipse cx="507.5" cy="61.8105" fill="#84BE84" rx="3" ry="3" style="stroke:#038048;stroke-width:1.0;"/><text fill="#000000" font-family="sans-serif" font-size="14" lengthAdjust="spacing" textLength="41" x="516.5" y="66.1074">base()</text><ellipse cx="507.5" cy="80.4316" fill="#84BE84" rx="3" ry="3" style="stroke:#038048;stroke-width:1.0;"/><text fill="#000000" font-family="sans-serif" font-size="14" lengthAdjust="spacing" textLength="293" x="516.5" y="84.7285">Distribuer(int nombreDeCartes, Joueur joueur)</text></g><!--class Joueur--><g id="elem_Joueur"><rect codeLine="31" fill="#F1F1F1" height="178.3477" id="Joueur" rx="2.5" ry="2.5" style="stroke:#181818;stroke-width:0.5;" width="218" x="273" y="161.5"/><ellipse cx="356.25" cy="177.5" fill="#ADD1B2" rx="11" ry="11" style="stroke:#181818;stroke-width:1.0;"/><path d="M359.0156,173.375 Q359.1719,173.1563 359.3594,173.0469 Q359.5469,172.9375 359.7656,172.9375 Q360.1406,172.9375 360.375,173.2031 Q360.6094,173.4531 360.6094,174.0625 L360.6094,175.5156 Q360.6094,176.125 360.375,176.3906 Q360.1406,176.6563 359.7656,176.6563 Q359.4219,176.6563 359.2188,176.4531 Q359.0156,176.2656 358.9063,175.75 Q358.8594,175.3906 358.6719,175.2031 Q358.3438,174.8281 357.7344,174.6094 Q357.125,174.3906 356.5,174.3906 Q355.7344,174.3906 355.0938,174.7188 Q354.4688,175.0469 353.9688,175.7969 Q353.4844,176.5469 353.4844,177.5781 L353.4844,178.6719 Q353.4844,179.9063 354.375,180.7344 Q355.2656,181.5469 356.8594,181.5469 Q357.7969,181.5469 358.4531,181.2969 Q358.8438,181.1406 359.2656,180.7031 Q359.5313,180.4375 359.6719,180.3594 Q359.8281,180.2813 360.0313,180.2813 Q360.3594,180.2813 360.6094,180.5469 Q360.875,180.7969 360.875,181.1406 Q360.875,181.4844 360.5313,181.8906 Q360.0313,182.4688 359.2344,182.7969 Q358.1563,183.25 356.8594,183.25 Q355.3438,183.25 354.1406,182.625 Q353.1563,182.125 352.4688,181.0625 Q351.7813,179.9844 351.7813,178.7031 L351.7813,177.5469 Q351.7813,176.2188 352.3906,175.0781 Q353.0156,173.9219 354.1094,173.3125 Q355.2031,172.6875 356.4375,172.6875 Q357.1719,172.6875 357.8125,172.8594 Q358.4688,173.0156 359.0156,173.375 Z " fill="#000000"/><text fill="#000000" font-family="sans-serif" font-size="14" lengthAdjust="spacing" textLength="43" x="376.75" y="183.2969">Joueur</text><line style="stroke:#181818;stroke-width:0.5;" x1="274" x2="490" y1="193.5" y2="193.5"/><line style="stroke:#181818;stroke-width:0.5;" x1="274" x2="490" y1="201.5" y2="201.5"/><ellipse cx="284" cy="216.3105" fill="#84BE84" rx="3" ry="3" style="stroke:#038048;stroke-width:1.0;"/><text fill="#000000" font-family="sans-serif" font-size="14" lengthAdjust="spacing" textLength="113" x="293" y="220.6074">GetNomComplet()</text><ellipse cx="284" cy="234.9316" fill="#84BE84" rx="3" ry="3" style="stroke:#038048;stroke-width:1.0;"/><text fill="#000000" font-family="sans-serif" font-size="14" lengthAdjust="spacing" textLength="44" x="293" y="239.2285">GetId()</text><ellipse cx="284" cy="253.5527" fill="#84BE84" rx="3" ry="3" style="stroke:#038048;stroke-width:1.0;"/><text fill="#000000" font-family="sans-serif" font-size="14" lengthAdjust="spacing" textLength="161" x="293" y="257.8496">AjouterCarte(Carte carte)</text><ellipse cx="284" cy="272.1738" fill="#84BE84" rx="3" ry="3" style="stroke:#038048;stroke-width:1.0;"/><text fill="#000000" font-family="sans-serif" font-size="14" lengthAdjust="spacing" textLength="63" x="293" y="276.4707">GetMain()</text><ellipse cx="284" cy="290.7949" fill="#84BE84" rx="3" ry="3" style="stroke:#038048;stroke-width:1.0;"/><text fill="#000000" font-family="sans-serif" font-size="14" lengthAdjust="spacing" textLength="133" x="293" y="295.0918">PoserCarteOuverte()</text><ellipse cx="284" cy="309.416" fill="#84BE84" rx="3" ry="3" style="stroke:#038048;stroke-width:1.0;"/><text fill="#000000" font-family="sans-serif" font-size="14" lengthAdjust="spacing" textLength="88" x="293" y="313.7129">AfficherMain()</text><ellipse cx="284" cy="328.0371" fill="#84BE84" rx="3" ry="3" style="stroke:#038048;stroke-width:1.0;"/><text fill="#000000" font-family="sans-serif" font-size="14" lengthAdjust="spacing" textLength="192" x="293" y="332.334">MettreAJour(SujetPeche sujet)</text></g><!--class Paquet--><g id="elem_Paquet"><rect codeLine="41" fill="#F1F1F1" height="159.7266" id="Paquet" rx="2.5" ry="2.5" style="stroke:#181818;stroke-width:0.5;" width="260" x="526" y="170.5"/><ellipse cx="629.25" cy="186.5" fill="#ADD1B2" rx="11" ry="11" style="stroke:#181818;stroke-width:1.0;"/><path d="M632.0156,182.375 Q632.1719,182.1563 632.3594,182.0469 Q632.5469,181.9375 632.7656,181.9375 Q633.1406,181.9375 633.375,182.2031 Q633.6094,182.4531 633.6094,183.0625 L633.6094,184.5156 Q633.6094,185.125 633.375,185.3906 Q633.1406,185.6563 632.7656,185.6563 Q632.4219,185.6563 632.2188,185.4531 Q632.0156,185.2656 631.9063,184.75 Q631.8594,184.3906 631.6719,184.2031 Q631.3438,183.8281 630.7344,183.6094 Q630.125,183.3906 629.5,183.3906 Q628.7344,183.3906 628.0938,183.7188 Q627.4688,184.0469 626.9688,184.7969 Q626.4844,185.5469 626.4844,186.5781 L626.4844,187.6719 Q626.4844,188.9063 627.375,189.7344 Q628.2656,190.5469 629.8594,190.5469 Q630.7969,190.5469 631.4531,190.2969 Q631.8438,190.1406 632.2656,189.7031 Q632.5313,189.4375 632.6719,189.3594 Q632.8281,189.2813 633.0313,189.2813 Q633.3594,189.2813 633.6094,189.5469 Q633.875,189.7969 633.875,190.1406 Q633.875,190.4844 633.5313,190.8906 Q633.0313,191.4688 632.2344,191.7969 Q631.1563,192.25 629.8594,192.25 Q628.3438,192.25 627.1406,191.625 Q626.1563,191.125 625.4688,190.0625 Q624.7813,188.9844 624.7813,187.7031 L624.7813,186.5469 Q624.7813,185.2188 625.3906,184.0781 Q626.0156,182.9219 627.1094,182.3125 Q628.2031,181.6875 629.4375,181.6875 Q630.1719,181.6875 630.8125,181.8594 Q631.4688,182.0156 632.0156,182.375 Z " fill="#000000"/><text fill="#000000" font-family="sans-serif" font-size="14" lengthAdjust="spacing" textLength="45" x="649.75" y="192.2969">Paquet</text><line style="stroke:#181818;stroke-width:0.5;" x1="527" x2="785" y1="202.5" y2="202.5"/><line style="stroke:#181818;stroke-width:0.5;" x1="527" x2="785" y1="210.5" y2="210.5"/><ellipse cx="537" cy="225.3105" fill="#84BE84" rx="3" ry="3" style="stroke:#038048;stroke-width:1.0;"/><text fill="#000000" font-family="sans-serif" font-size="14" lengthAdjust="spacing" textLength="75" x="546" y="229.6074">GetCartes()</text><ellipse cx="537" cy="243.9316" fill="#84BE84" rx="3" ry="3" style="stroke:#038048;stroke-width:1.0;"/><text fill="#000000" font-family="sans-serif" font-size="14" lengthAdjust="spacing" textLength="69" x="546" y="248.2285">Melanger()</text><ellipse cx="537" cy="262.5527" fill="#84BE84" rx="3" ry="3" style="stroke:#038048;stroke-width:1.0;"/><text fill="#000000" font-family="sans-serif" font-size="14" lengthAdjust="spacing" textLength="93" x="546" y="266.8496">PiocherCarte()</text><ellipse cx="537" cy="281.1738" fill="#84BE84" rx="3" ry="3" style="stroke:#038048;stroke-width:1.0;"/><text fill="#000000" font-family="sans-serif" font-size="14" lengthAdjust="spacing" textLength="161" x="546" y="285.4707">AjouterCarte(Carte carte)</text><ellipse cx="537" cy="299.7949" fill="#84BE84" rx="3" ry="3" style="stroke:#038048;stroke-width:1.0;"/><text fill="#000000" font-family="sans-serif" font-size="14" lengthAdjust="spacing" textLength="234" x="546" y="304.0918">AjouterToutesCartes(Paquet paquet)</text><ellipse cx="537" cy="318.416" fill="#84BE84" rx="3" ry="3" style="stroke:#038048;stroke-width:1.0;"/><text fill="#000000" font-family="sans-serif" font-size="14" lengthAdjust="spacing" textLength="65" x="546" y="322.7129">GetFace()</text></g><!--class IObservateur--><g id="elem_IObservateur"><rect fill="#F1F1F1" height="48" id="IObservateur" rx="2.5" ry="2.5" style="stroke:#181818;stroke-width:0.5;" width="114" x="218" y="573"/><ellipse cx="233" cy="589" fill="#ADD1B2" rx="11" ry="11" style="stroke:#181818;stroke-width:1.0;"/><path d="M235.7656,584.875 Q235.9219,584.6563 236.1094,584.5469 Q236.2969,584.4375 236.5156,584.4375 Q236.8906,584.4375 237.125,584.7031 Q237.3594,584.9531 237.3594,585.5625 L237.3594,587.0156 Q237.3594,587.625 237.125,587.8906 Q236.8906,588.1563 236.5156,588.1563 Q236.1719,588.1563 235.9688,587.9531 Q235.7656,587.7656 235.6563,587.25 Q235.6094,586.8906 235.4219,586.7031 Q235.0938,586.3281 234.4844,586.1094 Q233.875,585.8906 233.25,585.8906 Q232.4844,585.8906 231.8438,586.2188 Q231.2188,586.5469 230.7188,587.2969 Q230.2344,588.0469 230.2344,589.0781 L230.2344,590.1719 Q230.2344,591.4063 231.125,592.2344 Q232.0156,593.0469 233.6094,593.0469 Q234.5469,593.0469 235.2031,592.7969 Q235.5938,592.6406 236.0156,592.2031 Q236.2813,591.9375 236.4219,591.8594 Q236.5781,591.7813 236.7813,591.7813 Q237.1094,591.7813 237.3594,592.0469 Q237.625,592.2969 237.625,592.6406 Q237.625,592.9844 237.2813,593.3906 Q236.7813,593.9688 235.9844,594.2969 Q234.9063,594.75 233.6094,594.75 Q232.0938,594.75 230.8906,594.125 Q229.9063,593.625 229.2188,592.5625 Q228.5313,591.4844 228.5313,590.2031 L228.5313,589.0469 Q228.5313,587.7188 229.1406,586.5781 Q229.7656,585.4219 230.8594,584.8125 Q231.9531,584.1875 233.1875,584.1875 Q233.9219,584.1875 234.5625,584.3594 Q235.2188,584.5156 235.7656,584.875 Z " fill="#000000"/><text fill="#000000" font-family="sans-serif" font-size="14" lengthAdjust="spacing" textLength="82" x="247" y="594.7969">IObservateur</text><line style="stroke:#181818;stroke-width:0.5;" x1="219" x2="331" y1="605" y2="605"/><line style="stroke:#181818;stroke-width:0.5;" x1="219" x2="331" y1="613" y2="613"/></g><!--class int--><g id="elem_int"><rect fill="#F1F1F1" height="48" id="int" rx="2.5" ry="2.5" style="stroke:#181818;stroke-width:0.5;" width="47" x="839.5" y="226.5"/><ellipse cx="854.5" cy="242.5" fill="#ADD1B2" rx="11" ry="11" style="stroke:#181818;stroke-width:1.0;"/><path d="M857.2656,238.375 Q857.4219,238.1563 857.6094,238.0469 Q857.7969,237.9375 858.0156,237.9375 Q858.3906,237.9375 858.625,238.2031 Q858.8594,238.4531 858.8594,239.0625 L858.8594,240.5156 Q858.8594,241.125 858.625,241.3906 Q858.3906,241.6563 858.0156,241.6563 Q857.6719,241.6563 857.4688,241.4531 Q857.2656,241.2656 857.1563,240.75 Q857.1094,240.3906 856.9219,240.2031 Q856.5938,239.8281 855.9844,239.6094 Q855.375,239.3906 854.75,239.3906 Q853.9844,239.3906 853.3438,239.7188 Q852.7188,240.0469 852.2188,240.7969 Q851.7344,241.5469 851.7344,242.5781 L851.7344,243.6719 Q851.7344,244.9063 852.625,245.7344 Q853.5156,246.5469 855.1094,246.5469 Q856.0469,246.5469 856.7031,246.2969 Q857.0938,246.1406 857.5156,245.7031 Q857.7813,245.4375 857.9219,245.3594 Q858.0781,245.2813 858.2813,245.2813 Q858.6094,245.2813 858.8594,245.5469 Q859.125,245.7969 859.125,246.1406 Q859.125,246.4844 858.7813,246.8906 Q858.2813,247.4688 857.4844,247.7969 Q856.4063,248.25 855.1094,248.25 Q853.5938,248.25 852.3906,247.625 Q851.4063,247.125 850.7188,246.0625 Q850.0313,244.9844 850.0313,243.7031 L850.0313,242.5469 Q850.0313,241.2188 850.6406,240.0781 Q851.2656,238.9219 852.3594,238.3125 Q853.4531,237.6875 854.6875,237.6875 Q855.4219,237.6875 856.0625,237.8594 Q856.7188,238.0156 857.2656,238.375 Z " fill="#000000"/><text fill="#000000" font-family="sans-serif" font-size="14" lengthAdjust="spacing" textLength="15" x="868.5" y="248.2969">int</text><line style="stroke:#181818;stroke-width:0.5;" x1="840.5" x2="885.5" y1="258.5" y2="258.5"/><line style="stroke:#181818;stroke-width:0.5;" x1="840.5" x2="885.5" y1="266.5" y2="266.5"/></g><!--link Game to SujetPeche--><g id="link_Game_SujetPeche"><path codeLine="50" d="M161.08,349.03 C162.13,365.79 163.19,382.79 164.15,398.27 " fill="none" id="Game-to-SujetPeche" style="stroke:#181818;stroke-width:1.0;"/><polygon fill="none" points="171.14,397.88,165.4,418.28,157.17,398.75,171.14,397.88" style="stroke:#181818;stroke-width:1.0;"/></g><!--link SujetPeche to IObservateur--><g id="link_SujetPeche_IObservateur"><path codeLine="51" d="M201.27,503.66 C218.15,524.81 238.19,549.9 253.11,568.58 " fill="none" id="SujetPeche-to-IObservateur" style="stroke:#181818;stroke-width:1.0;"/><polygon fill="#181818" points="256.4,572.71,253.9267,563.1767,253.287,568.7973,247.6664,568.1576,256.4,572.71" style="stroke:#181818;stroke-width:1.0;"/></g><!--link JeuDeCartes to Paquet--><g id="link_JeuDeCartes_Paquet"><path codeLine="52" d="M656,92.22 C656,109.32 656,129.9 656,150.46 " fill="none" id="JeuDeCartes-to-Paquet" style="stroke:#181818;stroke-width:1.0;"/><polygon fill="none" points="663,150.46,656,170.46,649,150.46,663,150.46" style="stroke:#181818;stroke-width:1.0;"/></g><!--link JeuDeCartes to int--><g id="link_JeuDeCartes_int"><path codeLine="53" d="M746.43,92.07 C773.42,107.84 801.3,127.92 822,152 C839.29,172.11 850.12,200.56 856.28,221.54 " fill="none" id="JeuDeCartes-to-int" style="stroke:#181818;stroke-width:1.0;"/><polygon fill="#181818" points="857.67,226.44,859.0705,216.6912,856.3096,221.6286,851.3722,218.8678,857.67,226.44" style="stroke:#181818;stroke-width:1.0;"/></g><!--link JeuDeCartes to Joueur--><g id="link_JeuDeCartes_Joueur"><path codeLine="54" d="M593.52,92.19 C566.92,110.23 535.7,131.81 508,152 C503.89,154.99 499.73,158.06 495.53,161.17 " fill="none" id="JeuDeCartes-to-Joueur" style="stroke:#181818;stroke-width:1.0;"/><polygon fill="#181818" points="491.32,164.3,500.9287,162.1384,495.332,161.316,496.1543,155.7193,491.32,164.3" style="stroke:#181818;stroke-width:1.0;"/></g><!--link Joueur to IObservateur--><g id="link_Joueur_IObservateur"><path codeLine="55" d="M382.16,339.69 C379.32,392.07 370.41,458.66 346,513 C338.65,529.36 327.05,544.95 315.33,558.12 " fill="none" id="Joueur-to-IObservateur" style="stroke:#181818;stroke-width:1.0;"/><polygon fill="none" points="320.13,563.22,301.26,572.86,310.01,553.56,320.13,563.22" style="stroke:#181818;stroke-width:1.0;"/></g><!--link Joueur to Carte--><g id="link_Joueur_Carte"><path codeLine="56" d="M463.99,339.62 C484.55,361.71 506.02,384.79 524.6,404.76 " fill="none" id="Joueur-to-Carte" style="stroke:#181818;stroke-width:1.0;"/><polygon fill="#181818" points="528.28,408.71,525.0802,399.3954,524.875,405.0486,519.2219,404.8434,528.28,408.71" style="stroke:#181818;stroke-width:1.0;"/></g><!--link Joueur to SujetPeche--><g id="link_Joueur_SujetPeche"><path codeLine="57" d="M291.55,339.62 C264.92,365.57 236.88,392.89 214.26,414.93 " fill="none" id="Joueur-to-SujetPeche" style="stroke:#181818;stroke-width:1.0;"/><polygon fill="#181818" points="210.67,418.42,219.9045,414.9959,214.248,414.9275,214.3165,409.271,210.67,418.42" style="stroke:#181818;stroke-width:1.0;"/></g><!--link Paquet to Carte--><g id="link_Paquet_Carte"><path codeLine="58" d="M625.64,330.62 C616.23,355.14 606.07,381.64 597.4,404.23 " fill="none" id="Paquet-to-Carte" style="stroke:#181818;stroke-width:1.0;"/><polygon fill="#181818" points="595.57,408.98,602.5199,402.0015,597.3553,404.3096,595.0473,399.145,595.57,408.98" style="stroke:#181818;stroke-width:1.0;"/></g><!--link Paquet to Paquet--><g id="link_Paquet_Paquet"><path codeLine="59" d="M786.04,215.97 C806.79,221.02 821,232.53 821,250.5 C821,266.92 809.13,277.95 791.24,283.59 " fill="none" id="Paquet-to-Paquet" style="stroke:#181818;stroke-width:1.0;"/><polygon fill="#181818" points="786.04,285.03,795.7798,286.4917,790.8598,283.6999,793.6516,278.7799,786.04,285.03" style="stroke:#181818;stroke-width:1.0;"/></g><!--SRC=[ZLFRRi8m37tlL-InQEilL4AW8T2uQ4oyfyLiGMt378SNjdzVceJMxQHjVSZbnFQnVTooaiQ8XQn1t1BXlWUn09h3HLCwYS2pR4h05TWEMMaB5cVQ8ig6Hl3UgYj7TqgNxu0pYGGZyA2EFVG2bbIb3E2GVgD9dHJWjd1FLqcEmhZ7hoGfVV9xUmRQWGlNbJ0zQqi3ZtJ9BaBtv_-ox52_eQmTHGVvYdZR3h9ggIOzubeqXZQwlhUYY-HwEmUFcYvU8KtVcxaoXAgmWAbgI3IwBX3kBe-nyUBiDnutuBSXkwul5H3FQNdiRh5r8SLGOTckp7ejLTCBgKsqtjehS8cdfvDgXH-Ohu48OUeImvG9PzeZxxRyi40yyL0gYrF9vWtmzodxgvZu_jgk9Z94welVMDLFieoQ-RybopvpDde9AoRBSi77BU7oUh_0CS9puQJzWGK9awYaznx6lZ_aOHuvmDABLVLc30Z7Rm00]--></g></svg>